<?xml version="1.0" standalone="no"?>
<!DOCTYPE svg PUBLIC "-//W3C//DTD SVG 20010904//EN"
 "http://www.w3.org/TR/2001/REC-SVG-20010904/DTD/svg10.dtd">
<svg version="1.0" xmlns="http://www.w3.org/2000/svg"
 width="700.000000pt" height="700.000000pt" viewBox="0 0 700.000000 700.000000"
 preserveAspectRatio="xMidYMid meet">
<metadata>
Created by potrace 1.14, written by Peter Selinger 2001-2017
</metadata>
<g transform="translate(0.000000,700.000000) scale(0.100000,-0.100000)"
fill="#000000" stroke="none">
<path d="M3529 6916 c-2 -3 -121 -30 -264 -61 -143 -31 -350 -76 -460 -100
-110 -24 -211 -46 -225 -49 -25 -5 -324 -70 -695 -151 -110 -24 -211 -46 -225
-48 -14 -3 -128 -28 -255 -55 -218 -48 -433 -95 -1048 -229 -171 -37 -266 -62
-263 -69 2 -6 134 -212 293 -457 l288 -446 105 -49 c112 -53 230 -95 375 -135
81 -22 265 -66 300 -71 41 -6 1 -18 -248 -71 -366 -78 -517 -112 -523 -118 -3
-2 28 -54 68 -116 40 -61 116 -177 169 -258 298 -456 367 -559 380 -570 29
-24 177 -92 264 -121 102 -35 316 -92 346 -92 53 0 2 -20 -168 -65 -104 -27
-192 -50 -198 -52 -25 -5 -250 -66 -253 -68 -3 -3 26 -48 376 -583 180 -276
187 -284 236 -308 75 -35 216 -78 351 -109 66 -15 121 -27 122 -28 1 -1 -115
-38 -258 -82 -142 -43 -259 -82 -259 -86 0 -4 42 -71 94 -150 52 -79 171 -262
265 -406 95 -143 177 -265 184 -271 29 -23 225 -80 332 -96 114 -18 170 -27
172 -29 1 -2 -112 -52 -252 -111 -160 -68 -252 -113 -248 -120 6 -10 184 -285
483 -743 l135 -207 48 -12 c189 -48 643 -50 850 -3 45 11 52 16 91 78 24 36
95 145 158 241 63 96 136 209 163 250 27 41 93 142 146 225 54 82 97 150 96
152 -2 1 -30 -6 -63 -17 -115 -35 -457 -96 -473 -83 -2 1 9 13 25 25 16 13
141 116 279 229 l250 206 259 399 c143 220 266 410 275 422 l14 24 -39 -17
c-198 -87 -480 -157 -730 -181 -38 -3 -77 -8 -88 -10 -10 -2 -53 -6 -95 -9
-42 -4 -91 -8 -109 -10 -76 -8 -507 -26 -501 -21 5 5 410 151 974 351 488 174
479 170 547 205 47 24 61 43 327 450 153 234 277 426 276 427 -1 2 -40 -9 -86
-23 -46 -14 -104 -32 -129 -39 -25 -7 -177 -54 -338 -104 -306 -95 -345 -106
-427 -116 -27 -4 -61 -8 -75 -10 -14 -2 -52 -7 -85 -10 -33 -3 -76 -8 -95 -10
-69 -8 -146 -15 -210 -20 -200 -13 -246 -16 -360 -20 -155 -6 -511 -7 -516 -3
-2 2 130 48 294 102 163 53 513 168 777 256 264 87 518 166 565 175 225 44
439 106 565 166 125 59 88 11 474 602 64 97 149 227 189 288 40 62 71 113 70
114 -2 1 -277 -72 -613 -162 -591 -158 -707 -185 -845 -198 -36 -3 -81 -8
-100 -10 -70 -8 -267 -25 -355 -30 -49 -3 -115 -7 -145 -10 -199 -16 -1018
-28 -1085 -15 -24 4 -5 12 95 38 126 33 372 101 465 128 59 17 886 243 930
254 17 4 122 33 235 63 113 31 250 63 305 72 55 9 114 18 130 21 91 14 307 60
425 89 219 55 357 104 510 179 l55 27 288 446 c281 435 311 483 290 470 -9 -6
-150 -37 -819 -182 -184 -40 -387 -74 -539 -90 -33 -4 -67 -8 -75 -10 -8 -2
-51 -7 -95 -11 -44 -3 -82 -7 -85 -9 -3 -2 -48 -6 -100 -10 -52 -4 -102 -8
-110 -10 -8 -1 -58 -6 -110 -9 -52 -4 -111 -9 -130 -11 -19 -2 -82 -7 -140
-10 -58 -3 -132 -8 -165 -10 -72 -5 -275 -13 -480 -21 -166 -6 -929 -6 -1070
0 -49 2 -124 5 -165 6 -71 2 -73 3 -34 11 38 9 45 17 115 125 41 63 106 164
144 223 39 60 75 115 80 124 6 9 98 152 206 319 108 167 199 309 203 316 7 12
4 17 -5 8z"/>
</g>
</svg>
